   <svg
        xmlns="http://www.w3.org/2000/svg"
        fill="none"
        viewBox="0 0 33 39"
        class="bin-bottom"
      >
        <mask fill="white" id="path-1-inside-1_8_19">
          <path d="M0 0H33V35C33 37.2091 31.2091 39 29 39H4C1.79086 39 0 37.2091 0 35V0Z"></path>
        </mask>
        <path
          mask="url(#path-1-inside-1_8_19)"
          fill="white"
          d="M0 0H33H0ZM37 35C37 39.4183 33.4183 43 29 43H4C-0.418278 43 -4 39.4183 -4 35H4H29H37ZM4 43C-0.418278 43 -4 39.4183 -4 35V0H4V35V43ZM37 0V35C37 39.4183 33.4183 43 29 43V35V0H37Z"
        ></path>
        <path stroke-width="4" stroke="white" d="M12 6L12 29"></path>
        <path stroke-width="4" stroke="white" d="M21 6V29"></path>
      </svg>